<svg width="15" height="18" viewBox="0 0 15 18" fill="none" xmlns="http://www.w3.org/2000/svg">
<path d="M0.978261 18H14.0217C14.0646 18 14.107 17.9917 14.1465 17.9756C14.1861 17.9594 14.2221 17.9357 14.2523 17.9059C14.2826 17.876 14.3066 17.8406 14.323 17.8016C14.3394 17.7626 14.3478 17.7208 14.3478 17.6786V15.4286H14.6739C14.7167 15.4286 14.7591 15.4203 14.7987 15.4041C14.8383 15.388 14.8742 15.3643 14.9045 15.3345C14.9348 15.3046 14.9588 15.2692 14.9752 15.2302C14.9916 15.1912 15 15.1494 15 15.1071V9.96428C15 9.92207 14.9916 9.88027 14.9752 9.84127C14.9588 9.80226 14.9348 9.76683 14.9045 9.73698C14.8742 9.70713 14.8383 9.68345 14.7987 9.6673C14.7591 9.65115 14.7167 9.64285 14.6739 9.64286H14.3478V2.57143C14.3476 2.48612 14.3132 2.40435 14.2521 2.34395L11.97 0.0944421C11.9087 0.0342069 11.8257 0.000266123 11.7391 1.0871e-08H0.978261C0.935435 -1.0969e-05 0.893027 0.00829549 0.85346 0.0244449C0.813892 0.0405943 0.77794 0.0642702 0.747658 0.0941198C0.717376 0.123969 0.693357 0.159408 0.676973 0.19841C0.66059 0.237413 0.652163 0.279215 0.652174 0.321429V9.64286H0.326087C0.283261 9.64285 0.240853 9.65115 0.201286 9.6673C0.161718 9.68345 0.125766 9.70713 0.0954839 9.73698C0.0652017 9.76683 0.0411826 9.80226 0.0247992 9.84127C0.00841571 9.88027 -1.11279e-05 9.92207 1.10285e-08 9.96428V15.1071C-1.11279e-05 15.1494 0.00841571 15.1912 0.0247992 15.2302C0.0411826 15.2692 0.0652017 15.3046 0.0954839 15.3345C0.125766 15.3643 0.161718 15.388 0.201286 15.4041C0.240853 15.4203 0.283261 15.4286 0.326087 15.4286H0.652174V17.6786C0.652163 17.7208 0.66059 17.7626 0.676973 17.8016C0.693357 17.8406 0.717376 17.876 0.747658 17.9059C0.77794 17.9357 0.813892 17.9594 0.85346 17.9756C0.893027 17.9917 0.935435 18 0.978261 18ZM13.6957 17.3571H1.30435V15.4286H13.6957V17.3571ZM12.0652 1.09738L13.2345 2.25H12.0652V1.09738ZM1.30435 0.642857H11.413V2.57143C11.413 2.61364 11.4215 2.65544 11.4378 2.69445C11.4542 2.73345 11.4782 2.76889 11.5085 2.79874C11.5388 2.82859 11.5748 2.85226 11.6143 2.86841C11.6539 2.88456 11.6963 2.89287 11.7391 2.89286H13.6957V9.64286H1.30435V0.642857ZM0.652174 10.2857H14.3478V14.7857H0.652174V10.2857Z" fill="white"/>
<path d="M5.97843 14.143C6.02126 14.143 6.06366 14.1347 6.10323 14.1186C6.1428 14.1024 6.17875 14.0787 6.20903 14.0489C6.23932 14.019 6.26333 13.9836 6.27972 13.9446C6.2961 13.9056 6.30453 13.8638 6.30452 13.8216V12.8573H7.39169V13.8216C7.39336 13.9057 7.42845 13.9859 7.48942 14.0448C7.5504 14.1038 7.63239 14.1368 7.71779 14.1368C7.80319 14.1368 7.88518 14.1038 7.94615 14.0448C8.00712 13.9859 8.0422 13.9057 8.04387 13.8215V11.6788C8.04362 11.4799 7.96335 11.2892 7.82067 11.1486C7.67798 11.008 7.48454 10.9289 7.28278 10.9287H6.41343C6.21167 10.9289 6.01822 11.008 5.87554 11.1486C5.73286 11.2892 5.65259 11.4799 5.65234 11.6788V13.8216C5.65233 13.8638 5.66076 13.9056 5.67714 13.9446C5.69353 13.9836 5.71754 14.019 5.74783 14.0489C5.77811 14.0787 5.81406 14.1024 5.85363 14.1186C5.8932 14.1347 5.93561 14.143 5.97843 14.143ZM6.41343 11.5716H7.28278C7.29707 11.5716 7.31123 11.5743 7.32443 11.5797C7.33764 11.5851 7.34965 11.593 7.35976 11.6029C7.36987 11.6129 7.3779 11.6247 7.38338 11.6377C7.38886 11.6507 7.39168 11.6647 7.39169 11.6788V12.2144H6.30452V11.6788C6.30453 11.6647 6.30735 11.6507 6.31283 11.6377C6.31831 11.6247 6.32634 11.6129 6.33645 11.6029C6.34656 11.593 6.35857 11.5851 6.37178 11.5797C6.38498 11.5743 6.39914 11.5716 6.41343 11.5716Z" fill="white"/>
<path d="M9.0214 14.143C9.06423 14.143 9.10663 14.1347 9.1462 14.1186C9.18577 14.1024 9.22172 14.0787 9.252 14.0489C9.28229 14.019 9.3063 13.9836 9.32269 13.9446C9.33907 13.9056 9.3475 13.8638 9.34749 13.8216V11.2501C9.34749 11.1649 9.31313 11.0831 9.25198 11.0229C9.19082 10.9626 9.10788 10.9287 9.0214 10.9287C8.93492 10.9287 8.85197 10.9626 8.79082 11.0229C8.72967 11.0831 8.69531 11.1649 8.69531 11.2501V13.8216C8.6953 13.8638 8.70373 13.9056 8.72011 13.9446C8.73649 13.9836 8.76051 14.019 8.7908 14.0489C8.82108 14.0787 8.85703 14.1024 8.8966 14.1186C8.93617 14.1347 8.97857 14.143 9.0214 14.143Z" fill="white"/>
</svg>
