<svg width="16" height="16" viewBox="0 0 16 16" fill="none" xmlns="http://www.w3.org/2000/svg">
<path d="M7.15152 16C6.74747 16 6.37037 15.9182 6.0202 15.7545C5.67003 15.5909 5.38047 15.3576 5.15152 15.0545L0 8.27273L0.484848 7.85455C0.740741 7.62424 1.04377 7.49091 1.39394 7.45455C1.74411 7.41818 2.06061 7.49091 2.34343 7.67273L4.68687 9.14545L4.68687 2.18182C4.68687 1.97576 4.76431 1.80303 4.91919 1.66364C5.07407 1.52424 5.26599 1.45455 5.49495 1.45455C5.72391 1.45455 5.91582 1.52424 6.07071 1.66364C6.22559 1.80303 6.30303 1.97576 6.30303 2.18182L6.30303 11.9455L3.31313 10.0545L6.48485 14.2182C6.55219 14.3152 6.64646 14.3939 6.76768 14.4545C6.88889 14.5152 7.01684 14.5455 7.15152 14.5455L12.7677 14.5455C13.2121 14.5455 13.5926 14.403 13.9091 14.1182C14.2256 13.8333 14.3838 13.4909 14.3838 13.0909L14.3838 2.90909C14.3838 2.70303 14.4613 2.5303 14.6162 2.39091C14.771 2.25152 14.963 2.18182 15.1919 2.18182C15.4209 2.18182 15.6128 2.25152 15.7677 2.39091C15.9226 2.5303 16 2.70303 16 2.90909V13.0909C16 13.8909 15.6835 14.5758 15.0505 15.1455C14.4175 15.7152 13.6566 16 12.7677 16L7.15152 16ZM7.91919 8L7.91919 0.727273C7.91919 0.521212 7.99663 0.348485 8.15152 0.209091C8.3064 0.069697 8.49832 0 8.72727 0C8.95623 0 9.14815 0.069697 9.30303 0.209091C9.45791 0.348485 9.53535 0.521212 9.53535 0.727273L9.53535 8H7.91919ZM11.1515 8L11.1515 1.45455C11.1515 1.24848 11.229 1.07576 11.3838 0.936364C11.5387 0.79697 11.7306 0.727273 11.9596 0.727273C12.1886 0.727273 12.3805 0.79697 12.5354 0.936364C12.6902 1.07576 12.7677 1.24848 12.7677 1.45455L12.7677 8H11.1515Z" fill="#D1D2EE"/>
</svg>
