<svg width="16" height="16" viewBox="0 0 16 16" fill="none" xmlns="http://www.w3.org/2000/svg">
<path d="M1.77778 16C1.28889 16 0.87037 15.8259 0.522222 15.4778C0.174074 15.1296 0 14.7111 0 14.2222V10.6667H1.77778V14.2222H5.33333V16H1.77778ZM10.6667 16V14.2222H14.2222V10.6667H16V14.2222C16 14.7111 15.8259 15.1296 15.4778 15.4778C15.1296 15.8259 14.7111 16 14.2222 16H10.6667ZM0 5.33333V1.77778C0 1.28889 0.174074 0.87037 0.522222 0.522222C0.87037 0.174074 1.28889 0 1.77778 0H5.33333V1.77778H1.77778V5.33333H0ZM14.2222 5.33333V1.77778H10.6667V0H14.2222C14.7111 0 15.1296 0.174074 15.4778 0.522222C15.8259 0.87037 16 1.28889 16 1.77778V5.33333H14.2222Z" fill="#D1D2EE"/>
<path d="M4 13L3 12L7 8L3 4L4 3L8 7L12 3L13 4L9 8L13 12L12 13L8 9L4 13Z" fill="#D1D2EE"/>
</svg>
