<svg width="20" height="20" viewBox="0 0 20 20" fill="none" xmlns="http://www.w3.org/2000/svg">
<path d="M18 7V4H15V2H18C18.55 2 19.0208 2.19583 19.4125 2.5875C19.8042 2.97917 20 3.45 20 4V7H18ZM0 7V4C0 3.45 0.195833 2.97917 0.5875 2.5875C0.979167 2.19583 1.45 2 2 2H5V4H2V7H0ZM15 18V16H18V13H20V16C20 16.55 19.8042 17.0208 19.4125 17.4125C19.0208 17.8042 18.55 18 18 18H15ZM2 18C1.45 18 0.979167 17.8042 0.5875 17.4125C0.195833 17.0208 0 16.55 0 16V13H2V16H5V18H2ZM4 14V6H16V14H4ZM6 12H14V8H6V12Z" fill="#D1D2EE"/>
</svg>
