<svg width="44" height="44" viewBox="0 0 44 44" fill="none" xmlns="http://www.w3.org/2000/svg">
<path fill-rule="evenodd" clip-rule="evenodd" d="M18.2058 34.2417C24.1104 30.092 33.1172 27.6725 38.8046 28.9238C38.7925 18.4989 31.799 8.8577 17.8243 0C23.9674 11.9352 24.0946 23.3491 18.2058 34.2417ZM3.32498 40.1546C3.42501 39.1767 3.79477 38.3698 4.21692 37.5366C15.8101 38.4966 31.1508 31.2419 42.7268 31.1782C42.8822 35.6248 41.3759 38.8864 38.2078 40.9633C26.0788 41.4254 11.982 38.2653 3.32498 40.1546ZM0 42.7938C12.9774 37.275 28.9097 45.9674 44 41.0147C35.3872 47.9766 12.3776 40.2259 0 42.7938ZM3.63922 36.7717C8.21781 33.4403 12.7211 32.9267 17.7214 34.3559C17.6328 34.5185 18.1795 25.3439 17.7533 7.32902C15.3708 20.9372 10.4679 30.7109 3.63922 36.7715V36.7717Z" fill="white"/>
</svg>
