<svg width="20" height="20" viewBox="0 0 20 20" fill="none" xmlns="http://www.w3.org/2000/svg">
<path d="M18.4444 20L11.4444 13C10.8889 13.4444 10.25 13.7963 9.52778 14.0556C8.80556 14.3148 8.03704 14.4444 7.22222 14.4444C5.2037 14.4444 3.49537 13.7454 2.09722 12.3472C0.699074 10.9491 0 9.24074 0 7.22222C0 5.2037 0.699074 3.49537 2.09722 2.09722C3.49537 0.699074 5.2037 0 7.22222 0C9.24074 0 10.9491 0.699074 12.3472 2.09722C13.7454 3.49537 14.4444 5.2037 14.4444 7.22222C14.4444 8.03704 14.3148 8.80556 14.0556 9.52778C13.7963 10.25 13.4444 10.8889 13 11.4444L20 18.4444L18.4444 20ZM7.22222 12.2222C8.61111 12.2222 9.79167 11.7361 10.7639 10.7639C11.7361 9.79167 12.2222 8.61111 12.2222 7.22222C12.2222 5.83333 11.7361 4.65278 10.7639 3.68056C9.79167 2.70833 8.61111 2.22222 7.22222 2.22222C5.83333 2.22222 4.65278 2.70833 3.68056 3.68056C2.70833 4.65278 2.22222 5.83333 2.22222 7.22222C2.22222 8.61111 2.70833 9.79167 3.68056 10.7639C4.65278 11.7361 5.83333 12.2222 7.22222 12.2222ZM4.44444 8.33333V6.11111H10V8.33333H4.44444Z" fill="#D1D2EE"/>
</svg>
